<svg viewBox="0 0 70 56" xmlns="http://www.w3.org/2000/svg" fill-rule="evenodd" clip-rule="evenodd" stroke-linejoin="round" stroke-miterlimit="2"><circle cx="143.525" cy="117.63" r="3.717" fill="#d9aa71" transform="matrix(1.24058 0 0 1.0785 -159.166 -75.399)"/><circle cx="143.525" cy="117.63" r="3.717" fill="#d9aa71" transform="matrix(1.24058 0 0 1.0785 -131.042 -75.399)"/><path d="M47.414 34.326l-44.517-3.8a2.696 2.696 0 01-2.465-2.619L0 10.591a2.696 2.696 0 015.388-.135l.372 14.905 40.366 3.446 9.14-23.332a2.64 2.64 0 01.082-.189s1.441-2.886 2.54-4.05C58.778.29 59.776 0 60.457 0c.871 0 6.273.076 6.273.076a2.695 2.695 0 01-.076 5.388s-3.296-.046-5.125-.065L60.224 7.59l-9.15 23.36 2.324 5.816c.092.23.146.472.161.72l.387 6.248a2.325 2.325 0 01-2.313 2.47l-37.347.15a2.327 2.327 0 01-2.336-2.316 2.328 2.328 0 012.317-2.336l34.883-.14-.21-3.417-1.526-3.818z" fill="#d9aa71"/><g transform="translate(-105.147 -5.916)"><path d="M132.176 14.558l.319-6.081a2.537 2.537 0 115.068.266l-.316 6.016 7.305.289a2.537 2.537 0 11-.201 5.071l-7.369-.292-.319 6.081a2.539 2.539 0 01-2.667 2.402 2.54 2.54 0 01-2.401-2.667l.315-6.017-7.304-.289a2.54 2.54 0 01-2.436-2.636 2.54 2.54 0 012.636-2.435l7.37.292z" fill="#d9aa71" id="Add-Icon"/></g></svg>