<?xml version="1.0" encoding="UTF-8" standalone="no"?>
<!DOCTYPE svg PUBLIC "-//W3C//DTD SVG 1.1//EN" "http://www.w3.org/Graphics/SVG/1.1/DTD/svg11.dtd">
<svg width="100%" height="100%" viewBox="0 0 70 56" version="1.1" xmlns="http://www.w3.org/2000/svg" xmlns:xlink="http://www.w3.org/1999/xlink" xml:space="preserve" xmlns:serif="http://www.serif.com/" style="fill-rule:evenodd;clip-rule:evenodd;stroke-linejoin:round;stroke-miterlimit:2;">
    <g transform="matrix(1,0,0,1,-105.146,-5.91528)">
        <g transform="matrix(0.730141,0,0,0.849185,252.692,92.4087)">
            <g transform="matrix(1.57543,0,0,1.1776,-359.962,-115.553)">
                <g transform="matrix(1.0785,0,0,1.0785,-38.1549,-63.7662)">
                    <circle cx="143.525" cy="117.63" r="3.717" style="fill:rgb(217,170,113);"/>
                </g>
                <g transform="matrix(1.0785,0,0,1.0785,-13.7049,-63.7662)">
                    <circle cx="143.525" cy="117.63" r="3.717" style="fill:rgb(217,170,113);"/>
                </g>
                <g transform="matrix(0.869349,0,0,1,8.80687,5.71687)">
                    <path d="M152.561,40.242L108.044,36.441C106.675,36.324 105.614,35.196 105.579,33.823L105.146,16.507C105.109,15.02 106.286,13.783 107.773,13.746C109.259,13.709 110.496,14.886 110.534,16.372L110.906,31.277L151.272,34.723L160.411,11.391C160.436,11.327 160.464,11.264 160.494,11.202C160.494,11.202 161.935,8.316 163.033,7.152C163.926,6.206 164.924,5.915 165.605,5.915C166.476,5.915 171.878,5.991 171.878,5.991C173.365,6.012 174.555,7.236 174.534,8.723C174.513,10.21 173.289,11.4 171.802,11.379C171.802,11.379 168.506,11.333 166.677,11.314L165.371,13.505L156.221,36.864L158.545,42.681C158.637,42.91 158.691,43.153 158.706,43.4L159.093,49.649C159.132,50.288 158.907,50.915 158.469,51.382C158.031,51.85 157.421,52.116 156.78,52.119L119.433,52.269C118.149,52.274 117.102,51.236 117.097,49.953C117.092,48.669 118.13,47.622 119.414,47.617L154.297,47.476L154.086,44.06L152.561,40.242Z" style="fill:rgb(217,170,113);"/>
                </g>
                <g transform="matrix(0.869349,0,0,1,8.80687,5.71687)">
                    <g id="Add-Icon" serif:id="Add Icon">
                        <path d="M132.176,14.558L132.495,8.477C132.568,7.078 133.763,6.002 135.161,6.076C136.56,6.149 137.636,7.344 137.563,8.743L137.247,14.759L144.552,15.048C145.951,15.104 147.043,16.285 146.987,17.684C146.932,19.084 145.751,20.175 144.351,20.119L136.982,19.827L136.663,25.908C136.59,27.307 135.395,28.383 133.996,28.31C132.597,28.236 131.522,27.041 131.595,25.643L131.91,19.626L124.606,19.337C123.206,19.282 122.115,18.1 122.17,16.701C122.226,15.302 123.407,14.21 124.806,14.266L132.176,14.558Z" style="fill:rgb(217,170,113);"/>
                    </g>
                </g>
            </g>
        </g>
    </g>
</svg>
